<svg version="1.1" id="Layer_1" xmlns="http://www.w3.org/2000/svg" xmlns:xlink="http://www.w3.org/1999/xlink" x="0px" y="0px"
	 width="100%" viewBox="0 0 256 192" enable-background="new 0 0 256 192" xml:space="preserve">
<defs>
  <linearGradient id="blueOrange" x1="0%" y1="0%" x2="100%" y2="100%">
    <stop offset="0%" style="stop-color:#0057ff"/>
    <stop offset="50%" style="stop-color:#7b3fff"/>
    <stop offset="100%" style="stop-color:#ff6a00"/>
  </linearGradient>
</defs>
<path fill="url(#blueOrange)" opacity="1.000000" stroke="none" 
	d="
M130.367767,25.412598 
	C137.470840,26.301115 141.904709,30.160467 145.175659,35.839260 
	C164.878479,70.045944 184.652954,104.211372 204.356567,138.417603 
	C206.314194,141.816116 208.850540,144.951599 210.128204,150.001602 
	C184.647919,133.129990 156.775131,127.607513 126.375916,126.171638 
	C133.881012,121.877823 141.116074,120.954834 148.881226,118.403664 
	C141.970184,106.361534 135.265442,94.678894 127.941429,81.917175 
	C118.023697,99.058662 108.673195,115.219780 98.767853,132.339874 
	C145.489273,130.667969 187.043091,143.027725 224.779419,168.591064 
	C223.773895,170.686523 222.760483,169.854416 221.962296,169.570114 
	C204.369080,163.303680 186.030487,161.507034 167.567505,160.273987 
	C139.386200,158.391922 111.301613,160.231155 83.251579,162.501724 
	C68.178764,163.721832 53.182533,165.887558 38.151005,167.620148 
	C37.369534,167.710220 36.581089,167.739838 35.850677,167.793564 
	C34.975967,165.609650 36.327679,164.334671 37.113083,162.974182 
	C61.514362,120.706039 85.979347,78.474625 110.334633,36.180031 
	C114.766388,28.483988 120.985291,24.537436 130.367767,25.412598 
z"/>
</svg>
